<?xml version="1.0" encoding="UTF-8"?>
<svg width="100pt" height="100pt" version="1.1" viewBox="0 0 100 100" xmlns="http://www.w3.org/2000/svg">
 <g>
  <path d="m30 66.199h0.19922c0.80078 0 1.3984-0.60156 1.5-1.3984 0.5-5.1992 2.8984-10.199 6.8008-14.102 3.8984-3.8984 8.8984-6.1992 14.102-6.8008 0.80078-0.10156 1.3984-0.69922 1.3984-1.5v-0.19922c0-0.80078-0.60156-1.3984-1.3984-1.5-5.1992-0.5-10.199-2.8984-14.102-6.8008-3.8984-3.8984-6.3008-8.8984-6.8008-14.102-0.10156-0.80078-0.69922-1.3984-1.5-1.3984h-0.19922c-0.80078 0-1.3984 0.60156-1.5 1.3984-0.5 5.2031-2.8984 10.203-6.8008 14.102-3.8984 3.8984-8.8984 6.1992-14.102 6.8008-0.80078 0.10156-1.3984 0.69922-1.3984 1.5v0.19922c0 0.80078 0.60156 1.3984 1.3984 1.5 5.1992 0.5 10.199 2.8984 14.102 6.8008 3.8984 3.8984 6.3008 8.8984 6.8008 14.102 0.10156 0.80078 0.69922 1.3984 1.5 1.3984z"/>
  <path d="m43.301 19.398c3.5 0.39844 6.8008 1.8984 9.3008 4.5 2.6016 2.6016 4.1016 5.8984 4.5 9.3008 0.10156 0.5 0.5 0.89844 1 0.89844h0.10156c0.5 0 1-0.39844 1-0.89844 0.39844-3.5 1.8984-6.8008 4.5-9.3008 2.6016-2.6016 5.8984-4.1016 9.3008-4.5 0.5-0.10156 0.89844-0.5 0.89844-1v-0.10156c0-0.5-0.39844-1-0.89844-1-3.3984-0.39844-6.8008-1.8984-9.3008-4.5-2.6016-2.6016-4.1016-5.8984-4.5-9.3008-0.10156-0.5-0.5-0.89844-1-0.89844h-0.10156c-0.5 0-1 0.39844-1 0.89844-0.39844 3.5-1.8984 6.8008-4.5 9.3008-2.6016 2.6016-5.8984 4.1016-9.3008 4.5-0.5 0.10156-0.89844 0.5-0.89844 1v0.10156c-0.10156 0.5 0.29688 1 0.89844 1z"/>
  <path d="m57.199 80.602c-3.3984-0.39844-6.8008-1.8984-9.3008-4.5-2.6016-2.6016-4.1016-5.8984-4.5-9.3008-0.10156-0.5-0.5-0.89844-1-0.89844h-0.10156c-0.5 0-1 0.39844-1 0.89844-0.39844 3.5-1.8984 6.8008-4.5 9.3008-2.6016 2.6016-5.8984 4.1016-9.3008 4.5-0.5 0.10156-0.89844 0.5-0.89844 1v0.10156c0 0.5 0.39844 1 0.89844 1 3.5 0.39844 6.8008 1.8984 9.3008 4.5 2.6016 2.6016 4.1016 5.8984 4.5 9.3008 0.10156 0.5 0.5 0.89844 1 0.89844h0.10156c0.5 0 1-0.39844 1-0.89844 0.39844-3.5 1.8984-6.8008 4.5-9.3008 2.6016-2.6016 5.8984-4.1016 9.3008-4.5 0.5-0.10156 0.89844-0.5 0.89844-1v-0.10156c0.10156-0.5-0.29688-1-0.89844-1z"/>
  <path d="m92.398 56.801c-5.1016-0.5-9.8984-2.8984-13.699-6.6016-3.8008-3.8008-6.1016-8.6016-6.6016-13.699-0.10156-0.80078-0.69922-1.3984-1.5-1.3984h-0.19922c-0.80078 0-1.3984 0.60156-1.5 1.3984-0.5 5.1016-2.8984 9.8984-6.6016 13.699-3.8008 3.8008-8.6016 6.1016-13.699 6.6016-0.80078 0.10156-1.3984 0.69922-1.3984 1.5v0.19922c0 0.80078 0.60156 1.3984 1.3984 1.5 5.1016 0.5 9.8984 2.8984 13.699 6.6016 3.8008 3.8008 6.1016 8.6016 6.6016 13.699 0.10156 0.80078 0.69922 1.3984 1.5 1.3984h0.19922c0.80078 0 1.3984-0.60156 1.5-1.3984 0.5-5.1016 2.8984-10 6.6016-13.699 3.8008-3.8008 8.6016-6.1016 13.699-6.6016 0.80078-0.10156 1.3984-0.69922 1.3984-1.5v-0.19922c0.003906-0.80078-0.59766-1.4023-1.3984-1.5z"/>
 </g>
</svg>
